<svg data-name="Layer 1" xmlns="http://www.w3.org/2000/svg" width="890" height="729.787"><path d="M219.677 665.91l1.81 38.156v.002a24.345 24.345 0 01-23.163 25.47l-.79.037-2.964-62.474z" fill="#2f2e41"/><path d="M762.171 601.427c-18.173 35.465-41.224 69.764-70.389 100.808-.648.7-1.302 1.384-1.962 2.08l-69.1-32.714c.422-.702.885-1.49 1.384-2.352 29.683-50.787 208.865-360.592 203.203-430.759.66 5.787 21.898 197.17-63.136 362.937z" fill="#e6e6e6"/><path d="M705.113 708.546a92.323 92.323 0 01-2.957 1.608l-51.838-24.54c.725-.515 1.57-1.123 2.54-1.806 15.88-11.403 63.105-45.614 109.313-82.38 49.658-39.512 98.152-81.965 105.354-102.23-1.463 4.648-46.914 145.898-162.412 209.348z" fill="#e6e6e6"/><circle cx="86.23" cy="648.051" r="80" fill="#f9a826"/><path d="M118.275 614.48h-64.09a10.694 10.694 0 00-10.682 10.681v45.78a10.694 10.694 0 0010.681 10.681h64.091a10.694 10.694 0 0010.682-10.682v-45.779a10.694 10.694 0 00-10.682-10.682zm0 6.103a4.559 4.559 0 011.134.148l-33.172 26.461-32.978-26.515a4.58 4.58 0 01.925-.094zm0 54.935h-64.09a4.583 4.583 0 01-4.579-4.578v-45.368l34.711 27.91a3.052 3.052 0 003.816.006l34.72-27.696v45.148a4.583 4.583 0 01-4.578 4.578z" fill="#fff"/><path d="M394.968 532.551l17.9.148a12.454 12.454 0 0012.399-14.43 12.454 12.454 0 00-17.807-9.192l-16.88 8.33-57.737 12.875-24.735-25.289-14.208 23.401 33.378 25.788z" fill="#ffb8b8"/><path d="M391.613 717.49l-21.09 4.056c-14.404-45.409-30.012-88.411-30.011-121.67-20.386 22.688-45.667 35.669-75.436 39.745l3.245-50.29 24.334-12.979 37.243-17.189a28.28 28.28 0 0110.365-2.563 28.28 28.28 0 0129.412 23.773z" fill="#2f2e41"/><path d="M290.627 633.537l-8.405 6.389a26.03 26.03 0 01-25.663 3.345c-24.075-18.046-41.179-12.722-56.681 14.516-18.594-20.985-23.182-51.294-6.587-82.651l92.064 2.028 18.656-5.678z" fill="#2f2e41"/><path d="M259.967 727.517a23.507 23.507 0 01-27.82-11.721c-8.274-7.288-15.255-17.721-21.31-30.409a235.353 235.353 0 01-11.167-28.683c-4.19-12.94 2.816-27.077 15.855-30.948q.582-.173 1.177-.326c17.407-4.469 35.282 5.57 41.232 22.528l17.3 49.308a23.507 23.507 0 01-14.398 29.964q-.432.152-.87.287z" fill="#2f2e41"/><path d="M207.891 679.772s20.279 22.712 24.334 35.69" opacity=".2" style="isolation:isolate"/><path d="M129.244 572.587l-6.787 16.564a12.454 12.454 0 008.791 16.872 12.454 12.454 0 0015.15-13.118l-1.463-18.767 9.496-58.387 32.668-13.57-16.447-21.885-36.343 21.409z" fill="#ffb8b8"/><path d="M291.438 575.136c-23.306 39.147-69.767 54.306-109.56 23.651 7-23 29.6-86.566 15-89-31 13-31.045-17.523-36.844-32.799l70.57-25.956 38.123 10.545 7.814 2.773a26.42 26.42 0 0117.583 24.537c-16.015 23.135-27.87 47.815-2.686 86.249z" fill="#f9a826"/><path d="M300.36 543.502l-27.983-23.118 9.328-53.94L319.828 507z" fill="#f9a826"/><path data-name="b82a9922-ead1-40af-af3b-f133b244cde7" d="M764.705 172.945h-4V63.4a63.4 63.4 0 00-63.4-63.4H465.218a63.4 63.4 0 00-63.4 63.4v600.974a63.4 63.4 0 0063.4 63.4h232.085a63.4 63.4 0 0063.4-63.4V250.921h4z" fill="#3f3d56"/><path data-name="b2a7827b-2d2c-407d-93be-35e4c67116bc" d="M699.862 16.493h-30.295a22.495 22.495 0 01-20.828 30.994H515.78a22.495 22.495 0 01-20.826-30.991h-28.3a47.348 47.348 0 00-47.348 47.348v600.089a47.348 47.348 0 0047.348 47.348h233.2a47.348 47.348 0 0047.348-47.348V63.84a47.348 47.348 0 00-47.348-47.348h.009z" fill="#fff"/><circle data-name="e6b07811-3d0f-4972-ba4c-46b0c6566e33" cx="583.658" cy="651.746" r="26" fill="#e6e6e6"/><path d="M478.182 411.298c-2.457 0-4.457 2.283-4.457 5.088s2 5.088 4.457 5.088h210.143c2.457 0 4.457-2.283 4.457-5.088s-2-5.088-4.457-5.088zm0 120c-2.457 0-4.457 2.283-4.457 5.088s2 5.088 4.457 5.088h210.143c2.457 0 4.457-2.283 4.457-5.088s-2-5.088-4.457-5.088zm0-89.472c-2.457 0-4.457 2.282-4.457 5.087s2 5.088 4.457 5.088h90.425c2.458 0 4.458-2.282 4.458-5.088s-2-5.087-4.458-5.087zm0 29.098c-2.457 0-4.457 2.283-4.457 5.088s2 5.088 4.457 5.088h210.143c2.457 0 4.457-2.283 4.457-5.088s-2-5.088-4.457-5.088zm0 30.527c-2.457 0-4.457 2.283-4.457 5.088s2 5.088 4.457 5.088h90.425c2.458 0 4.458-2.283 4.458-5.088s-2-5.088-4.458-5.088z" fill="#e6e6e6"/><path d="M517.853 179.627h130.814a5.457 5.457 0 015.45 5.45v136.238a5.457 5.457 0 01-5.45 5.45H517.853a5.457 5.457 0 01-5.45-5.45V185.078a5.457 5.457 0 015.45-5.45z" fill="#f9a826"/><path d="M620.793 298.67a3.7 3.7 0 10.004-7.4h-75.07a3.7 3.7 0 10-.004 7.4h75.07zm0-21.802a3.7 3.7 0 000-7.4h-75.066a3.7 3.7 0 10-.004 7.4h75.07zm-37.533-69.146a23.293 23.293 0 11-23.293 23.292 23.319 23.319 0 0123.293-23.292z" fill="#fff"/><path d="M286.064 443.97h-69.15a5.371 5.371 0 01-5.365-5.365V408.8a39.94 39.94 0 1179.88 0v29.806a5.371 5.371 0 01-5.365 5.365z" fill="#2f2e41"/><circle cx="414.124" cy="497.999" r="29.283" transform="rotate(-61.337 264.866 586.134)" fill="#ffb6b6"/><path d="M300.878 411.78h-42.283l-.434-6.07-2.168 6.07h-6.51l-.86-12.032-4.297 12.032h-12.598v-.596a31.63 31.63 0 0131.594-31.595h5.962a31.63 31.63 0 0131.594 31.595z" fill="#2f2e41"/><path d="M258.248 449.534a5.481 5.481 0 01-.949-.084l-30.962-5.463v-51.17h34.083l-.844.983c-11.74 13.693-2.895 35.894 3.422 47.91a5.286 5.286 0 01-.42 5.612 5.344 5.344 0 01-4.33 2.212zm103.085 252.641l38.2-.001h.001a24.345 24.345 0 0124.344 24.343v.791l-62.544.003z" fill="#2f2e41"/><path d="M889 729.787H1a1 1 0 010-2h888a1 1 0 010 2z" fill="#cacaca"/></svg>